<svg version="1.1" id="Layer_1" xmlns="http://www.w3.org/2000/svg" xmlns:xlink="http://www.w3.org/1999/xlink" x="0px" y="0px"
	 width="100%" viewBox="0 0 572 127" enable-background="new 0 0 572 127" xml:space="preserve">
<path fill="#FFFFFF" opacity="1.000000" stroke="none" 
	d="
M418.000000,128.000000 
	C278.666656,128.000000 139.833328,128.000000 1.000000,128.000000 
	C1.000000,85.666664 1.000000,43.333332 1.000000,1.000000 
	C191.666672,1.000000 382.333344,1.000000 573.000000,1.000000 
	C573.000000,43.333332 573.000000,85.666664 573.000000,128.000000 
	C521.500000,128.000000 470.000000,128.000000 418.000000,128.000000 
M12.294762,15.618116 
	C8.474816,18.626005 6.968067,22.581694 6.982514,27.409164 
	C7.054244,51.378075 6.983917,75.347382 7.029713,99.316414 
	C7.046864,108.292976 12.304768,113.696121 21.250917,113.728348 
	C45.219730,113.814713 69.189201,113.805595 93.158119,113.734558 
	C102.425369,113.707092 107.747513,108.383102 107.773560,99.131660 
	C107.841026,75.162727 107.849785,51.193287 107.767319,27.224445 
	C107.736488,18.262772 102.345604,13.024002 93.367416,13.009882 
	C69.398354,12.972185 45.428684,12.924586 21.460726,13.091751 
	C18.603268,13.111680 15.754913,14.436946 12.294762,15.618116 
M190.500000,91.001114 
	C309.166595,91.001297 427.833221,91.002205 546.499817,90.999969 
	C554.246399,90.999817 555.991882,89.300568 555.998352,81.749840 
	C556.008606,69.749847 556.014832,57.749821 555.995911,45.749851 
	C555.985291,39.018200 554.056396,37.007412 547.499329,37.006939 
	C408.166016,36.996876 268.832703,36.996643 129.499405,37.006222 
	C122.943062,37.006672 121.015137,39.016319 121.004158,45.750999 
	C120.984589,57.750965 120.991417,69.750992 121.001221,81.750984 
	C121.007401,89.305672 122.746262,90.996689 130.500000,90.998901 
	C150.166672,91.004501 169.833328,91.000862 190.500000,91.001114 
z"/>
<path fill="#139A9F" opacity="1.000000" stroke="none" 
	d="
M12.598551,15.387638 
	C15.754913,14.436946 18.603268,13.111680 21.460726,13.091751 
	C45.428684,12.924586 69.398354,12.972185 93.367416,13.009882 
	C102.345604,13.024002 107.736488,18.262772 107.767319,27.224445 
	C107.849785,51.193287 107.841026,75.162727 107.773560,99.131660 
	C107.747513,108.383102 102.425369,113.707092 93.158119,113.734558 
	C69.189201,113.805595 45.219730,113.814713 21.250917,113.728348 
	C12.304768,113.696121 7.046864,108.292976 7.029713,99.316414 
	C6.983917,75.347382 7.054244,51.378075 6.982514,27.409164 
	C6.968067,22.581694 8.474816,18.626005 12.598551,15.387638 
M36.747463,61.059414 
	C37.523113,60.999844 38.298767,60.940277 39.148540,61.829052 
	C39.148540,67.085342 39.148540,72.341637 39.148540,78.204987 
	C44.173008,78.993301 48.975597,79.746796 54.468781,80.857910 
	C55.152927,80.805298 55.837070,80.752686 56.521217,80.700073 
	C56.506130,80.490173 56.491047,80.280266 56.475960,80.070366 
	C55.564392,80.180771 54.652824,80.291168 53.603607,79.421204 
	C53.613159,70.256706 53.622707,61.092216 54.322903,51.867321 
	C54.549995,51.909737 54.777092,51.952148 55.131237,52.755932 
	C56.248966,61.544998 60.792534,66.176903 70.085800,65.324928 
	C71.681854,65.178612 73.344948,65.763489 75.012764,66.930618 
	C74.661850,71.120209 74.310928,75.309799 73.892662,80.303513 
	C74.656876,78.907265 75.880783,77.657082 75.956810,76.340599 
	C76.155739,72.896217 75.853127,69.422874 75.874916,65.108925 
	C75.972023,63.480804 76.069122,61.852688 76.163719,60.266529 
	C77.818169,60.042950 79.198814,59.856373 80.579453,59.669796 
	C75.495567,58.368874 70.630394,57.293617 65.706917,56.800610 
	C60.641270,56.293373 57.586353,53.714268 56.000137,48.504333 
	C56.011707,48.112347 56.023273,47.720364 56.628151,46.930988 
	C55.454597,46.572407 54.281044,46.213821 52.458874,45.980923 
	C51.604366,46.648052 50.749859,47.315186 49.261417,48.011173 
	C48.690014,48.495922 48.118607,48.980671 47.547203,49.465416 
	C48.114868,49.655331 48.682529,49.845242 49.243107,50.784271 
	C48.042969,56.080688 44.085258,58.124748 38.759514,58.847069 
	C38.176754,58.461956 37.593990,58.076843 37.011227,57.691727 
	C36.716125,58.530796 36.421024,59.369865 36.093616,60.627064 
	C36.093616,60.627064 36.048954,61.044060 35.425053,61.038391 
	C35.137730,61.122425 34.832996,61.175304 34.578255,61.317657 
	C34.529274,61.345028 34.676525,61.723583 34.733246,61.940128 
	C35.147144,61.614902 35.561043,61.289677 36.747463,61.059414 
M76.912666,53.532570 
	C76.223366,53.384789 75.534065,53.237007 74.844772,53.089226 
	C74.697762,53.381611 74.550751,53.673996 74.403748,53.966381 
	C75.342545,54.518101 76.281342,55.069820 77.220146,55.621540 
	C77.263924,55.076809 77.307709,54.532074 76.912666,53.532570 
M68.810349,50.368729 
	C68.761810,50.733868 68.713272,51.099007 68.664726,51.464142 
	C68.925583,51.466362 69.186432,51.468582 69.447289,51.470802 
	C69.406693,51.103508 69.366096,50.736217 68.810349,50.368729 
M66.612167,50.306808 
	C66.392700,50.011959 66.173241,49.717106 65.953781,49.422256 
	C65.765564,49.601959 65.577347,49.781662 65.389130,49.961361 
	C65.674568,50.194004 65.960007,50.426651 66.612167,50.306808 
M59.418995,47.700954 
	C59.639492,47.996822 59.859989,48.292694 60.080479,48.588562 
	C60.266979,48.409664 60.453484,48.230762 60.639988,48.051868 
	C60.354801,47.818287 60.069614,47.584702 59.418995,47.700954 
M62.388336,49.215008 
	C62.751781,49.265701 63.115223,49.316391 63.478668,49.367081 
	C63.480412,49.106915 63.482159,48.846748 63.483906,48.586582 
	C63.119480,48.625572 62.755054,48.664562 62.388336,49.215008 
z"/>
<path fill="#617CFF" opacity="1.000000" stroke="none" 
	d="
M190.000000,91.001022 
	C169.833328,91.000862 150.166672,91.004501 130.500000,90.998901 
	C122.746262,90.996689 121.007401,89.305672 121.001221,81.750984 
	C120.991417,69.750992 120.984589,57.750965 121.004158,45.750999 
	C121.015137,39.016319 122.943062,37.006672 129.499405,37.006222 
	C268.832703,36.996643 408.166016,36.996876 547.499329,37.006939 
	C554.056396,37.007412 555.985291,39.018200 555.995911,45.749851 
	C556.014832,57.749821 556.008606,69.749847 555.998352,81.749840 
	C555.991882,89.300568 554.246399,90.999817 546.499817,90.999969 
	C427.833221,91.002205 309.166595,91.001297 190.000000,91.001022 
M366.500000,38.995121 
	C287.841614,38.995064 209.183212,38.993526 130.524811,38.997578 
	C123.699020,38.997929 123.005638,39.678650 122.998070,46.373016 
	C122.985069,57.871780 122.991295,69.370575 122.995361,80.869354 
	C122.998085,88.582848 123.426437,89.004784 131.267853,89.004898 
	C207.759750,89.006004 284.251648,89.005081 360.743530,89.005058 
	C422.736969,89.005035 484.730377,89.008163 546.723816,89.001625 
	C553.206604,89.000946 553.991089,88.229332 554.000488,81.878349 
	C554.017822,70.212944 554.010132,58.547493 554.003723,46.882065 
	C553.999695,39.516697 553.472046,38.996849 545.981079,38.996536 
	C486.487396,38.994053 426.993683,38.995056 366.500000,38.995121 
z"/>
<path fill="#FDFEFE" opacity="1.000000" stroke="none" 
	d="
M53.778187,80.500298 
	C48.975597,79.746796 44.173008,78.993301 39.148540,78.204987 
	C39.148540,72.341637 39.148540,67.085342 39.161919,61.190453 
	C39.175297,60.551853 39.130203,60.210686 39.183784,59.960915 
	C39.261860,59.542614 39.286346,59.374081 39.310829,59.205551 
	C44.085258,58.124748 48.042969,56.080688 49.458462,50.208778 
	C49.747662,49.082966 49.821507,48.532642 49.895351,47.982319 
	C50.749859,47.315186 51.604366,46.648052 52.773888,46.320805 
	C53.270020,48.416367 53.451138,50.172043 53.632256,51.927723 
	C53.622707,61.092216 53.613159,70.256706 53.677597,79.936813 
	C53.751587,80.452431 53.778187,80.500298 53.778187,80.500298 
z"/>
<path fill="#F5FBFB" opacity="1.000000" stroke="none" 
	d="
M74.977074,66.010590 
	C73.344948,65.763489 71.681854,65.178612 70.085800,65.324928 
	C60.792534,66.176903 56.248966,61.544998 55.095863,52.082146 
	C55.097363,50.551662 55.134239,49.694973 55.370316,48.897198 
	C55.569511,48.956116 55.962234,49.091671 55.962234,49.091671 
	C57.586353,53.714268 60.641270,56.293373 65.706917,56.800610 
	C70.630394,57.293617 75.495567,58.368874 80.579453,59.669796 
	C79.198814,59.856373 77.818169,60.042950 76.163719,60.266529 
	C76.069122,61.852688 75.972023,63.480804 75.618408,65.532837 
	C75.361908,65.956749 74.977074,66.010590 74.977074,66.010590 
z"/>
<path fill="#D7EEEF" opacity="1.000000" stroke="none" 
	d="
M74.994919,66.470604 
	C74.977074,66.010590 75.361908,65.956749 75.556175,65.958908 
	C75.853127,69.422874 76.155739,72.896217 75.956810,76.340599 
	C75.880783,77.657082 74.656876,78.907265 73.892662,80.303513 
	C74.310928,75.309799 74.661850,71.120209 74.994919,66.470604 
z"/>
<path fill="#A3D8D9" opacity="1.000000" stroke="none" 
	d="
M55.171116,48.838280 
	C55.134239,49.694973 55.097363,50.551662 55.032341,51.701462 
	C54.777092,51.952148 54.549995,51.909737 53.977581,51.897522 
	C53.451138,50.172043 53.270020,48.416367 53.098194,46.257961 
	C54.281044,46.213821 55.454597,46.572407 56.059975,47.127594 
	C55.384907,47.828896 55.278011,48.333588 55.171116,48.838280 
z"/>
<path fill="#209FA4" opacity="1.000000" stroke="none" 
	d="
M77.132080,53.759956 
	C77.307709,54.532074 77.263924,55.076809 77.220139,55.621540 
	C76.281342,55.069820 75.342545,54.518101 74.403748,53.966381 
	C74.550751,53.673996 74.697762,53.381611 74.844772,53.089226 
	C75.534065,53.237007 76.223366,53.384789 77.132080,53.759956 
z"/>
<path fill="#31A7AB" opacity="1.000000" stroke="none" 
	d="
M39.035172,59.026310 
	C39.286346,59.374081 39.261860,59.542614 38.808319,59.921066 
	C37.628155,60.156967 36.877041,60.182949 36.125923,60.208935 
	C36.421024,59.369865 36.716125,58.530796 37.011230,57.691727 
	C37.593990,58.076843 38.176754,58.461956 39.035172,59.026310 
z"/>
<path fill="#31A7AB" opacity="1.000000" stroke="none" 
	d="
M49.578384,47.996746 
	C49.821507,48.532642 49.747662,49.082966 49.462006,49.834221 
	C48.682529,49.845242 48.114868,49.655331 47.547203,49.465416 
	C48.118607,48.980671 48.690014,48.495922 49.578384,47.996746 
z"/>
<path fill="#209FA4" opacity="1.000000" stroke="none" 
	d="
M69.067924,50.368828 
	C69.366096,50.736217 69.406693,51.103508 69.447289,51.470802 
	C69.186432,51.468582 68.925583,51.466362 68.664734,51.464142 
	C68.713272,51.099007 68.761810,50.733868 69.067924,50.368828 
z"/>
<path fill="#209FA4" opacity="1.000000" stroke="none" 
	d="
M66.428802,50.483055 
	C65.960007,50.426651 65.674568,50.194004 65.389130,49.961365 
	C65.577347,49.781662 65.765564,49.601959 65.953781,49.422256 
	C66.173241,49.717106 66.392700,50.011959 66.428802,50.483055 
z"/>
<path fill="#209FA4" opacity="1.000000" stroke="none" 
	d="
M59.601711,47.526035 
	C60.069614,47.584702 60.354801,47.818287 60.639984,48.051865 
	C60.453484,48.230762 60.266979,48.409664 60.080482,48.588562 
	C59.859989,48.292694 59.639492,47.996822 59.601711,47.526035 
z"/>
<path fill="#209FA4" opacity="1.000000" stroke="none" 
	d="
M62.389481,48.959282 
	C62.755054,48.664562 63.119480,48.625572 63.483906,48.586582 
	C63.482159,48.846748 63.480412,49.106915 63.478668,49.367081 
	C63.115223,49.316391 62.751781,49.265701 62.389481,48.959282 
z"/>
<path fill="#A3D8D9" opacity="1.000000" stroke="none" 
	d="
M54.123482,80.679108 
	C53.778187,80.500298 53.751587,80.452431 53.746422,80.427002 
	C54.652824,80.291168 55.564392,80.180771 56.475960,80.070366 
	C56.491047,80.280266 56.506130,80.490173 56.521217,80.700073 
	C55.837070,80.752686 55.152927,80.805298 54.123482,80.679108 
z"/>
<path fill="#B8E1E2" opacity="1.000000" stroke="none" 
	d="
M36.109772,60.417999 
	C36.877041,60.182949 37.628155,60.156967 38.754738,60.170837 
	C39.130203,60.210686 39.175297,60.551853 39.124855,60.716282 
	C38.298767,60.940277 37.523113,60.999844 36.378685,61.032784 
	C36.009911,61.006153 36.048954,61.044060 36.048954,61.044060 
	C36.048954,61.044060 36.093616,60.627064 36.109772,60.417999 
z"/>
<path fill="#209FA4" opacity="1.000000" stroke="none" 
	d="
M55.370316,48.897198 
	C55.278011,48.333588 55.384907,47.828896 55.763321,47.326290 
	C56.023273,47.720364 56.011707,48.112347 55.981186,48.798004 
	C55.962234,49.091671 55.569511,48.956116 55.370316,48.897198 
z"/>
<path fill="#B8E1E2" opacity="1.000000" stroke="none" 
	d="
M35.992424,60.985306 
	C35.561043,61.289677 35.147144,61.614902 34.733246,61.940128 
	C34.676525,61.723583 34.529274,61.345028 34.578255,61.317657 
	C34.832996,61.175304 35.137730,61.122425 35.737003,61.041225 
	C36.048954,61.044060 36.009911,61.006153 35.992424,60.985306 
z"/>
<path fill="#FDFDFD" opacity="1.000000" stroke="none" 
	d="
M367.000000,38.995056 
	C426.993683,38.995056 486.487396,38.994053 545.981079,38.996536 
	C553.472046,38.996849 553.999695,39.516697 554.003723,46.882065 
	C554.010132,58.547493 554.017822,70.212944 554.000488,81.878349 
	C553.991089,88.229332 553.206604,89.000946 546.723816,89.001625 
	C484.730377,89.008163 422.736969,89.005035 360.743530,89.005058 
	C284.251648,89.005081 207.759750,89.006004 131.267853,89.004898 
	C123.426437,89.004784 122.998085,88.582848 122.995361,80.869354 
	C122.991295,69.370575 122.985069,57.871780 122.998070,46.373016 
	C123.005638,39.678650 123.699020,38.997929 130.524811,38.997578 
	C209.183212,38.993526 287.841614,38.995064 367.000000,38.995056 
M515.686584,53.948009 
	C514.645996,53.010399 513.605469,52.072788 511.874451,50.534309 
	C507.992615,50.308517 504.110779,50.082726 500.102966,49.849606 
	C500.102966,59.566895 500.102966,68.593880 500.102966,77.673721 
	C501.912720,77.673721 503.454803,77.673721 504.965149,77.673721 
	C505.183289,75.135712 505.373383,72.924500 505.603973,70.241920 
	C510.129974,71.857475 508.888519,80.877060 516.721741,77.131447 
	C515.541626,75.553001 514.469910,74.119431 513.305115,72.665749 
	C513.305115,72.665749 513.279785,72.573990 513.847656,72.005943 
	C513.789673,71.072578 513.302002,69.742340 513.740540,69.267601 
	C517.844666,64.824432 516.195374,59.665661 515.686584,53.948009 
M339.918304,52.495476 
	C339.918304,52.495476 339.992737,52.435909 340.486786,51.712444 
	C335.283569,50.922348 330.080383,50.132252 324.677612,49.311855 
	C324.677612,59.653004 324.677612,68.693077 324.677612,77.980782 
	C328.498657,77.980782 331.985504,78.154694 335.447571,77.936111 
	C339.636108,77.671646 343.103882,75.779091 343.462372,71.269707 
	C343.867310,66.176804 343.677216,61.002434 343.260529,55.903149 
	C343.160370,54.677612 341.143585,53.608700 339.918304,52.495476 
M161.312439,77.867081 
	C161.759537,75.456787 162.206650,73.046494 162.722824,70.263878 
	C166.740540,72.492455 165.721786,80.778625 173.077011,77.385376 
	C172.400223,75.757355 171.582825,74.138611 171.067627,72.428810 
	C170.727905,71.301331 170.261856,69.530128 170.814026,68.925827 
	C174.528870,64.860176 173.278015,59.973728 172.633102,55.603645 
	C172.327286,53.531364 169.364273,50.929756 167.114029,50.286983 
	C163.927582,49.376785 160.287064,50.056160 156.390884,50.056160 
	C156.390884,58.768425 156.465714,67.056435 156.354294,75.341934 
	C156.309296,78.687691 158.541153,77.937653 161.312439,77.867081 
M266.336700,49.773293 
	C262.309143,50.374233 260.016052,52.721710 259.889313,56.767872 
	C259.738312,61.588680 259.443390,66.479614 260.096252,71.218178 
	C260.403412,73.447563 262.488678,76.798782 264.280884,77.170609 
	C267.948242,77.931503 272.325653,77.928474 275.736084,76.559502 
	C279.530304,75.036499 279.443848,70.739105 278.765717,66.766769 
	C275.972473,66.231461 273.596832,65.634552 272.943909,69.759743 
	C272.758728,70.929749 270.364258,72.595207 269.088165,72.507256 
	C267.838104,72.421097 265.889709,70.504875 265.709167,69.191101 
	C265.239014,65.769020 265.308350,62.205727 265.718018,58.764927 
	C265.868805,57.498833 267.428131,55.696617 268.617401,55.449398 
	C269.891357,55.184578 271.576538,56.311157 272.918365,57.106796 
	C274.627625,58.120266 276.172394,59.411049 278.479370,61.083427 
	C279.272339,51.829559 276.134613,49.173016 266.336700,49.773293 
M387.564697,77.635895 
	C394.480377,72.746155 394.089081,65.741379 386.628784,61.445911 
	C384.345428,60.131214 381.991882,58.938442 379.670502,57.689835 
	C379.960052,56.930492 380.249634,56.171146 380.539185,55.411804 
	C382.983673,56.096851 385.428162,56.781895 388.521759,57.648849 
	C389.015137,57.286602 390.184540,56.428028 391.395325,55.539040 
	C389.484497,50.806744 386.150360,48.937527 381.439850,49.653473 
	C377.697052,50.222340 374.768188,52.104534 374.079041,56.064682 
	C373.245667,60.853405 376.238708,63.415859 380.111267,65.272453 
	C380.559845,65.487518 381.038849,65.683136 381.417053,65.993416 
	C382.981262,67.276642 384.573242,68.541702 385.968567,69.992722 
	C386.122467,70.152718 384.798767,72.191078 384.636383,72.128235 
	C382.657043,71.362236 380.766815,70.366058 378.853821,69.428757 
	C378.719635,69.363007 378.588654,69.290764 377.905090,68.933556 
	C376.901031,70.371887 374.636383,72.687164 375.010101,73.249741 
	C376.279327,75.160324 378.271423,76.975616 380.389191,77.821594 
	C382.241791,78.561653 384.636017,77.945869 387.564697,77.635895 
M199.018555,72.824921 
	C199.088089,67.516617 199.434113,62.193428 199.149261,56.904217 
	C198.865082,51.627277 195.650848,49.473614 189.351883,49.608654 
	C183.420471,49.735813 180.429779,52.026054 180.097855,57.085686 
	C179.859055,60.725822 180.116058,64.395699 179.992264,68.046890 
	C179.846619,72.342728 180.670319,76.065750 185.211624,77.746323 
	C190.226685,79.602226 195.651978,77.932152 199.018555,72.824921 
M475.116089,70.545105 
	C474.567719,72.890968 474.019348,75.236832 473.420532,77.798599 
	C475.514099,77.798599 477.116943,77.798599 478.728760,77.798599 
	C479.406219,75.759407 480.018707,73.915817 480.604767,72.151779 
	C482.825226,72.151779 484.762299,72.151779 486.571960,72.151779 
	C487.309021,74.279846 487.944183,76.113770 488.625061,78.079742 
	C490.467255,77.964432 492.052948,77.865181 493.910278,77.748924 
	C491.345398,68.244896 488.893402,59.159206 486.402344,49.928619 
	C484.216339,50.038277 482.460419,50.126362 480.672333,50.216061 
	C478.826630,56.976322 477.080444,63.372143 475.116089,70.545105 
M449.166595,73.668793 
	C452.014984,79.123383 457.191864,78.930908 461.753632,77.724510 
	C464.164093,77.087044 467.115967,73.929504 467.583496,71.481880 
	C468.501160,66.677673 468.173035,61.547695 467.762604,56.602123 
	C467.345276,51.573219 463.793976,49.408768 457.571930,49.635788 
	C451.552216,49.855423 448.906921,51.981682 448.733826,57.391182 
	C448.569550,62.524200 448.881256,67.672447 449.166595,73.668793 
M353.258789,61.729752 
	C351.888367,66.982094 350.517975,72.234436 349.086151,77.722130 
	C351.168915,77.722130 352.909058,77.722130 354.515259,77.722130 
	C355.259979,75.590141 355.896759,73.767220 356.572845,71.831741 
	C358.771973,71.927826 360.688843,72.011581 362.407074,72.086655 
	C363.116913,74.332993 363.657410,76.043434 364.197357,77.752167 
	C366.002533,77.752167 367.597687,77.752167 369.673187,77.752167 
	C367.138550,68.302032 364.703400,59.222931 362.293854,50.239220 
	C360.082520,50.239220 358.312225,50.239220 356.429108,50.239220 
	C355.431366,53.956673 354.490509,57.462212 353.258789,61.729752 
M436.502136,50.471451 
	C432.745972,50.268986 428.989838,50.066521 425.115723,49.857697 
	C425.115723,59.553547 425.115723,68.603455 425.115723,77.972443 
	C428.201385,77.972443 431.009430,78.121513 433.796234,77.941818 
	C439.844452,77.551826 442.241699,75.125412 442.001556,69.052109 
	C441.816711,64.377052 441.196655,59.686012 440.311890,55.090294 
	C440.012390,53.534657 438.309814,52.249146 436.502136,50.471451 
M238.895691,50.898670 
	C237.144028,50.527542 235.392380,50.156410 233.224564,49.697109 
	C233.224564,57.223259 232.967377,63.867821 233.305161,70.482002 
	C233.580124,75.865982 236.582581,78.126434 242.332855,78.204613 
	C249.088257,78.296463 252.222137,76.301598 252.554459,70.680710 
	C252.954071,63.921616 252.648941,57.120857 252.648941,50.174694 
	C250.623688,50.174694 249.030838,50.174694 246.976089,50.174694 
	C246.976089,56.159607 246.979950,61.951031 246.974442,67.742447 
	C246.971725,70.604187 245.827942,73.148384 242.771240,72.507889 
	C241.251419,72.189430 239.321945,69.541603 239.164932,67.804100 
	C238.687286,62.518543 238.982193,57.163174 238.895691,50.898670 
M206.913513,62.507187 
	C206.913513,67.577843 206.913513,72.648506 206.913513,77.650246 
	C218.516800,78.674591 224.215637,77.960892 224.719604,74.066223 
	C225.622437,67.089348 226.686890,58.966591 223.973434,53.014164 
	C221.216660,46.966686 213.012695,50.859859 206.913589,49.857475 
	C206.913589,54.261021 206.913589,57.887802 206.913513,62.507187 
M539.252625,50.895927 
	C534.234741,50.497322 529.216858,50.098717 524.285889,49.707020 
	C524.285889,59.711025 524.285889,68.752518 524.285889,77.988701 
	C527.933167,77.988701 531.244751,78.116539 534.542908,77.960365 
	C540.270752,77.689140 542.932800,74.862015 542.996521,69.177834 
	C543.037476,65.524368 543.369324,61.819912 542.876587,58.233715 
	C542.545349,55.823074 541.000122,53.579239 539.252625,50.895927 
M398.893127,54.641441 
	C398.893127,62.385612 398.893127,70.129784 398.893127,78.101700 
	C401.052917,77.958961 402.483582,77.864410 404.374695,77.739426 
	C404.374695,73.884163 404.374695,70.296112 404.374695,66.566483 
	C406.880066,66.566483 408.894867,66.566483 411.343536,66.566483 
	C411.343536,70.546425 411.343536,74.142235 411.343536,78.051163 
	C413.383331,77.940231 414.964630,77.854233 416.613800,77.764542 
	C416.613800,68.340584 416.613800,59.282879 416.613800,49.951702 
	C414.705292,50.049366 413.113739,50.130806 411.032715,50.237297 
	C411.032715,53.930073 411.032715,57.337265 411.032715,60.734612 
	C408.597137,60.734612 406.680359,60.734612 404.233948,60.734612 
	C404.233948,57.102928 404.233948,53.702919 404.233948,50.333504 
	C400.885559,49.705490 398.264252,49.355591 398.893127,54.641441 
M150.388733,63.161980 
	C150.605927,50.435364 148.061798,48.430412 134.180267,50.511139 
	C134.180267,59.557476 134.180267,68.621559 134.180267,78.020317 
	C136.022751,77.924744 137.567108,77.844635 139.046875,77.767883 
	C139.263901,75.158112 139.438385,73.060020 139.632202,70.729408 
	C144.630966,70.490135 149.628876,70.487686 150.388733,63.161980 
M292.521088,77.989342 
	C295.246277,78.429436 296.320221,77.452362 296.229431,74.530365 
	C296.031158,68.149231 296.168121,61.757675 296.168121,55.447903 
	C298.770355,55.208023 300.542847,55.044628 302.468872,54.867085 
	C302.468872,53.210175 302.468872,51.817226 302.468872,50.254318 
	C296.313507,50.254318 290.419617,50.254318 284.402588,50.254318 
	C284.402588,51.923626 284.402588,53.325714 284.402588,54.889755 
	C286.531281,55.108997 288.427124,55.304256 290.702820,55.538639 
	C290.702820,58.331112 290.609528,60.795784 290.722565,63.250954 
	C290.947357,68.134331 291.285706,73.012482 292.521088,77.989342 
z"/>
<path fill="#475855" opacity="1.000000" stroke="none" 
	d="
M160.871765,77.930321 
	C158.541153,77.937653 156.309296,78.687691 156.354294,75.341934 
	C156.465714,67.056435 156.390884,58.768425 156.390884,50.056160 
	C160.287064,50.056160 163.927582,49.376785 167.114029,50.286983 
	C169.364273,50.929756 172.327286,53.531364 172.633102,55.603645 
	C173.278015,59.973728 174.528870,64.860176 170.814026,68.925827 
	C170.261856,69.530128 170.727905,71.301331 171.067627,72.428810 
	C171.582825,74.138611 172.400223,75.757355 173.077011,77.385376 
	C165.721786,80.778625 166.740540,72.492455 162.722824,70.263878 
	C162.206650,73.046494 161.759537,75.456787 160.871765,77.930321 
M162.507797,64.846405 
	C166.671783,65.801918 167.695282,63.527866 167.638977,59.971867 
	C167.582657,56.414268 166.087265,54.835567 162.069321,55.882393 
	C162.069321,58.595158 162.069321,61.339298 162.507797,64.846405 
M170.059921,56.729927 
	C170.034958,56.386860 170.010010,56.043793 169.985046,55.700726 
	C169.744247,55.772324 169.503464,55.843918 169.262650,55.915520 
	C169.382263,56.166077 169.501862,56.416630 170.059921,56.729927 
z"/>
<path fill="#4A5A58" opacity="1.000000" stroke="none" 
	d="
M266.721252,49.682854 
	C276.134613,49.173016 279.272339,51.829559 278.479370,61.083427 
	C276.172394,59.411049 274.627625,58.120266 272.918365,57.106796 
	C271.576538,56.311157 269.891357,55.184578 268.617401,55.449398 
	C267.428131,55.696617 265.868805,57.498833 265.718018,58.764927 
	C265.308350,62.205727 265.239014,65.769020 265.709167,69.191101 
	C265.889709,70.504875 267.838104,72.421097 269.088165,72.507256 
	C270.364258,72.595207 272.758728,70.929749 272.943909,69.759743 
	C273.596832,65.634552 275.972473,66.231461 278.765717,66.766769 
	C279.443848,70.739105 279.530304,75.036499 275.736084,76.559502 
	C272.325653,77.928474 267.948242,77.931503 264.280884,77.170609 
	C262.488678,76.798782 260.403412,73.447563 260.096252,71.218178 
	C259.443390,66.479614 259.738312,61.588680 259.889313,56.767872 
	C260.016052,52.721710 262.309143,50.374233 266.721252,49.682854 
z"/>
<path fill="#4B5B58" opacity="1.000000" stroke="none" 
	d="
M387.177826,77.782471 
	C384.636017,77.945869 382.241791,78.561653 380.389191,77.821594 
	C378.271423,76.975616 376.279327,75.160324 375.010101,73.249741 
	C374.636383,72.687164 376.901031,70.371887 377.905090,68.933556 
	C378.588654,69.290764 378.719635,69.363007 378.853821,69.428757 
	C380.766815,70.366058 382.657043,71.362236 384.636383,72.128235 
	C384.798767,72.191078 386.122467,70.152718 385.968567,69.992722 
	C384.573242,68.541702 382.981262,67.276642 381.417053,65.993416 
	C381.038849,65.683136 380.559845,65.487518 380.111267,65.272453 
	C376.238708,63.415859 373.245667,60.853405 374.079041,56.064682 
	C374.768188,52.104534 377.697052,50.222340 381.439850,49.653473 
	C386.150360,48.937527 389.484497,50.806744 391.395325,55.539040 
	C390.184540,56.428028 389.015137,57.286602 388.521759,57.648849 
	C385.428162,56.781895 382.983673,56.096851 380.539185,55.411804 
	C380.249634,56.171146 379.960052,56.930492 379.670502,57.689835 
	C381.991882,58.938442 384.345428,60.131214 386.628784,61.445911 
	C394.089081,65.741379 394.480377,72.746155 387.177826,77.782471 
z"/>
<path fill="#455653" opacity="1.000000" stroke="none" 
	d="
M198.929688,73.248810 
	C195.651978,77.932152 190.226685,79.602226 185.211624,77.746323 
	C180.670319,76.065750 179.846619,72.342728 179.992264,68.046890 
	C180.116058,64.395699 179.859055,60.725822 180.097855,57.085686 
	C180.429779,52.026054 183.420471,49.735813 189.351883,49.608654 
	C195.650848,49.473614 198.865082,51.627277 199.149261,56.904217 
	C199.434113,62.193428 199.088089,67.516617 198.929688,73.248810 
M193.892288,65.328003 
	C193.822678,63.024754 194.262985,60.533485 193.507050,58.483303 
	C192.989548,57.079807 190.853821,55.570400 189.350861,55.470360 
	C188.280380,55.399105 186.230820,57.488499 186.064331,58.797577 
	C185.610992,62.362171 185.662491,66.055527 186.086227,69.630028 
	C186.223602,70.788864 188.048615,72.442566 189.254852,72.586517 
	C190.488586,72.733742 192.315506,71.602097 193.131714,70.482658 
	C193.896408,69.433907 193.678009,67.668350 193.892288,65.328003 
M182.913177,59.279713 
	C182.913177,62.901791 182.913177,66.523872 182.913177,70.145950 
	C183.060730,70.133766 183.208267,70.121582 183.355820,70.109406 
	C183.355820,65.632614 183.355820,61.155827 183.355820,56.679039 
	C183.009338,56.723690 182.662842,56.768341 182.316360,56.812996 
	C182.444412,57.381393 182.572464,57.949795 182.913177,59.279713 
M185.329346,53.352909 
	C185.577667,53.472179 185.826004,53.591450 186.074326,53.710720 
	C186.146133,53.472881 186.217941,53.235046 186.289764,52.997215 
	C185.948318,52.970997 185.606857,52.944782 185.329346,53.352909 
M192.476288,75.378029 
	C192.531311,75.162582 192.586334,74.947144 192.641357,74.731705 
	C192.505692,74.870209 192.370010,75.008713 192.476288,75.378029 
z"/>
<path fill="#4A5A58" opacity="1.000000" stroke="none" 
	d="
M475.225159,70.156540 
	C477.080444,63.372143 478.826630,56.976322 480.672333,50.216061 
	C482.460419,50.126362 484.216339,50.038277 486.402344,49.928619 
	C488.893402,59.159206 491.345398,68.244896 493.910278,77.748924 
	C492.052948,77.865181 490.467255,77.964432 488.625061,78.079742 
	C487.944183,76.113770 487.309021,74.279846 486.571960,72.151779 
	C484.762299,72.151779 482.825226,72.151779 480.604767,72.151779 
	C480.018707,73.915817 479.406219,75.759407 478.728760,77.798599 
	C477.116943,77.798599 475.514099,77.798599 473.420532,77.798599 
	C474.019348,75.236832 474.567719,72.890968 475.225159,70.156540 
z"/>
<path fill="#455653" opacity="1.000000" stroke="none" 
	d="
M449.075134,73.241394 
	C448.881256,67.672447 448.569550,62.524200 448.733826,57.391182 
	C448.906921,51.981682 451.552216,49.855423 457.571930,49.635788 
	C463.793976,49.408768 467.345276,51.573219 467.762604,56.602123 
	C468.173035,61.547695 468.501160,66.677673 467.583496,71.481880 
	C467.115967,73.929504 464.164093,77.087044 461.753632,77.724510 
	C457.191864,78.930908 452.014984,79.123383 449.075134,73.241394 
M456.909210,55.384697 
	C454.155701,57.921051 452.794983,68.849586 455.180725,71.333565 
	C456.038055,72.226250 458.018555,72.918625 459.054993,72.535439 
	C460.311096,72.071068 461.784821,70.469215 461.972534,69.185303 
	C462.422668,66.106529 462.192810,62.925903 462.205048,59.786255 
	C462.216736,56.789135 460.843872,55.119823 456.909210,55.384697 
M463.997589,68.771255 
	C464.065704,69.511726 464.133820,70.252205 464.201935,70.992676 
	C464.545685,70.986313 464.889404,70.979942 465.233154,70.973579 
	C465.233154,66.283875 465.233154,61.594173 465.233154,56.904469 
	C464.821655,56.894360 464.410187,56.884254 463.998688,56.874146 
	C463.998688,60.561852 463.998688,64.249550 463.997589,68.771255 
z"/>
<path fill="#4C5C59" opacity="1.000000" stroke="none" 
	d="
M353.404236,61.348751 
	C354.490509,57.462212 355.431366,53.956673 356.429108,50.239220 
	C358.312225,50.239220 360.082520,50.239220 362.293854,50.239220 
	C364.703400,59.222931 367.138550,68.302032 369.673187,77.752167 
	C367.597687,77.752167 366.002533,77.752167 364.197357,77.752167 
	C363.657410,76.043434 363.116913,74.332993 362.407074,72.086655 
	C360.688843,72.011581 358.771973,71.927826 356.572845,71.831741 
	C355.896759,73.767220 355.259979,75.590141 354.515259,77.722130 
	C352.909058,77.722130 351.168915,77.722130 349.086151,77.722130 
	C350.517975,72.234436 351.888367,66.982094 353.404236,61.348751 
z"/>
<path fill="#475855" opacity="1.000000" stroke="none" 
	d="
M436.875244,50.655823 
	C438.309814,52.249146 440.012390,53.534657 440.311890,55.090294 
	C441.196655,59.686012 441.816711,64.377052 442.001556,69.052109 
	C442.241699,75.125412 439.844452,77.551826 433.796234,77.941818 
	C431.009430,78.121513 428.201385,77.972443 425.115723,77.972443 
	C425.115723,68.603455 425.115723,59.553547 425.115723,49.857697 
	C428.989838,50.066521 432.745972,50.268986 436.875244,50.655823 
M436.717041,52.531803 
	C436.390594,52.385784 436.064117,52.239765 434.860352,52.037922 
	C432.413910,52.037922 429.967468,52.037922 427.437927,52.037922 
	C427.437927,60.294834 427.437927,67.974419 427.437927,75.747437 
	C430.038483,75.747437 432.162354,75.747437 434.286224,75.747437 
	C434.293823,75.605179 434.301422,75.462921 434.309021,75.320663 
	C432.392944,75.136597 430.476837,74.952530 428.291565,74.742607 
	C428.291565,70.527214 428.291565,66.463837 428.291565,62.227478 
	C430.511536,62.051266 432.454468,61.897041 434.397400,61.742817 
	C434.399536,61.612827 434.401703,61.482834 434.403870,61.352844 
	C432.376190,61.122677 430.348511,60.892506 428.250916,60.654400 
	C428.250916,58.051884 428.250916,55.788895 428.250916,52.925930 
	C430.940033,52.925930 433.384827,52.925930 436.413879,52.977257 
	C436.609253,52.984890 436.804626,52.992519 437.022736,53.482132 
	C437.140594,53.758244 437.258453,54.034355 437.376312,54.310463 
	C437.500458,54.223217 437.624573,54.135967 437.748718,54.048725 
	C437.499146,53.699100 437.249573,53.349476 436.717041,52.531803 
M432.328766,72.426048 
	C435.418671,72.111679 437.245972,70.341644 435.916534,67.460342 
	C435.258423,66.034035 432.702423,65.483376 431.005096,64.536552 
	C430.570892,64.984055 430.136658,65.431549 429.702454,65.879051 
	C430.320007,68.073784 430.937531,70.268517 432.328766,72.426048 
M430.269104,56.156242 
	C430.733368,57.806873 429.445496,61.080975 433.769989,59.431202 
	C432.815216,57.894096 435.729828,53.734085 430.269104,56.156242 
z"/>
<path fill="#4F5F5C" opacity="1.000000" stroke="none" 
	d="
M238.936005,51.366829 
	C238.982193,57.163174 238.687286,62.518543 239.164932,67.804100 
	C239.321945,69.541603 241.251419,72.189430 242.771240,72.507889 
	C245.827942,73.148384 246.971725,70.604187 246.974442,67.742447 
	C246.979950,61.951031 246.976089,56.159607 246.976089,50.174694 
	C249.030838,50.174694 250.623688,50.174694 252.648941,50.174694 
	C252.648941,57.120857 252.954071,63.921616 252.554459,70.680710 
	C252.222137,76.301598 249.088257,78.296463 242.332855,78.204613 
	C236.582581,78.126434 233.580124,75.865982 233.305161,70.482002 
	C232.967377,63.867821 233.224564,57.223259 233.224564,49.697109 
	C235.392380,50.156410 237.144028,50.527542 238.936005,51.366829 
M249.015717,61.504288 
	C249.015717,64.334282 249.015717,67.164276 249.015717,69.994270 
	C249.438843,69.986908 249.861969,69.979546 250.285095,69.972183 
	C250.285095,64.542259 250.285095,59.112343 250.285095,53.682423 
	C249.861969,53.656570 249.438858,53.630718 249.015732,53.604870 
	C249.015732,55.926369 249.015732,58.247871 249.015717,61.504288 
z"/>
<path fill="#445552" opacity="1.000000" stroke="none" 
	d="
M206.913544,62.010883 
	C206.913589,57.887802 206.913589,54.261021 206.913589,49.857475 
	C213.012695,50.859859 221.216660,46.966686 223.973434,53.014164 
	C226.686890,58.966591 225.622437,67.089348 224.719604,74.066223 
	C224.215637,77.960892 218.516800,78.674591 206.913513,77.650246 
	C206.913513,72.648506 206.913513,67.577843 206.913544,62.010883 
M217.765945,55.465946 
	C216.151886,55.341278 214.537842,55.216610 212.662003,55.071724 
	C212.662003,61.189346 212.662003,66.875168 212.662003,74.012497 
	C215.687943,72.513626 218.418228,71.929802 219.896774,70.246506 
	C222.048859,67.796379 220.753860,58.702812 217.765945,55.465946 
M209.016647,56.694199 
	C209.016647,62.519108 209.016647,68.344017 209.016647,74.168930 
	C209.364609,74.167984 209.712570,74.167038 210.060532,74.166092 
	C210.060532,67.280464 210.060532,60.394836 210.060532,53.278603 
	C211.789352,53.156517 213.073441,53.053627 214.359177,52.978546 
	C215.592361,52.906536 216.827225,52.863365 218.061356,52.807522 
	C216.221619,52.026310 214.404587,52.162209 212.615784,51.995384 
	C209.721252,51.725445 208.683365,53.030441 209.016647,56.694199 
M222.822617,72.971825 
	C222.727203,72.565048 222.631805,72.158272 222.536392,71.751503 
	C222.415558,71.840759 222.182556,71.945503 222.192383,72.016724 
	C222.249374,72.429688 222.363541,72.834755 222.822617,72.971825 
M218.269104,75.059975 
	C218.612976,75.035332 218.956863,75.010689 219.300735,74.986053 
	C219.228729,74.744560 219.156723,74.503075 219.084717,74.261574 
	C218.833862,74.381386 218.582993,74.501198 218.269104,75.059975 
z"/>
<path fill="#445552" opacity="1.000000" stroke="none" 
	d="
M539.625366,51.078354 
	C541.000122,53.579239 542.545349,55.823074 542.876587,58.233715 
	C543.369324,61.819912 543.037476,65.524368 542.996521,69.177834 
	C542.932800,74.862015 540.270752,77.689140 534.542908,77.960365 
	C531.244751,78.116539 527.933167,77.988701 524.285889,77.988701 
	C524.285889,68.752518 524.285889,59.711025 524.285889,49.707020 
	C529.216858,50.098717 534.234741,50.497322 539.625366,51.078354 
M537.821411,65.294342 
	C537.825378,55.504589 536.750427,54.238598 529.647461,55.819820 
	C529.647461,61.366596 529.647461,66.934959 529.647461,72.470177 
	C536.062195,73.108498 537.186768,72.205528 537.821411,65.294342 
M526.002686,58.609951 
	C526.002686,63.834839 526.002686,69.059723 526.002686,74.284607 
	C526.391418,74.286278 526.780151,74.287956 527.168884,74.289627 
	C527.168884,67.263710 527.168884,60.237797 527.168884,53.175968 
	C530.250305,53.022156 532.708069,52.899475 535.165833,52.776798 
	C535.143921,52.652172 535.121948,52.527550 535.099976,52.402924 
	C532.215210,52.402924 529.330444,52.402924 526.002747,52.402924 
	C526.002747,54.401608 526.002747,56.025757 526.002686,58.609951 
M539.265503,71.799278 
	C539.401428,72.294579 539.537354,72.789886 539.673279,73.285187 
	C539.995056,73.003403 540.316895,72.721619 540.638672,72.439857 
	C540.314026,72.095886 539.989380,71.751923 539.265503,71.799278 
M535.954956,75.314209 
	C536.098511,75.076500 536.242065,74.838791 536.385620,74.601074 
	C536.140686,74.513382 535.895691,74.425682 535.650696,74.337990 
	C535.609619,74.690773 535.568542,75.043556 535.954956,75.314209 
z"/>
<path fill="#455552" opacity="1.000000" stroke="none" 
	d="
M340.008209,52.467758 
	C341.143585,53.608700 343.160370,54.677612 343.260529,55.903149 
	C343.677216,61.002434 343.867310,66.176804 343.462372,71.269707 
	C343.103882,75.779091 339.636108,77.671646 335.447571,77.936111 
	C331.985504,78.154694 328.498657,77.980782 324.677612,77.980782 
	C324.677612,68.693077 324.677612,59.653004 324.677612,49.311855 
	C330.080383,50.132252 335.283569,50.922348 340.050537,52.353333 
	C339.457825,53.631195 339.301361,54.268173 339.144867,54.905151 
	C339.375610,54.948185 339.606354,54.991219 339.837128,55.034252 
	C339.894135,54.178753 339.951172,53.323257 340.008209,52.467758 
M339.994263,59.874096 
	C339.994263,63.386860 339.994263,66.899628 339.994263,70.412392 
	C340.746826,70.370834 341.499390,70.329285 342.251953,70.287735 
	C341.827942,66.417625 341.403931,62.547520 340.732178,58.437191 
	C340.481598,58.607220 340.231018,58.777245 339.994263,59.874096 
M329.996216,60.667274 
	C329.996216,64.627464 329.996216,68.587654 329.996216,72.508102 
	C336.805145,72.915756 338.037598,71.853615 338.112976,65.965767 
	C338.130035,64.633980 338.127563,63.301662 338.113251,61.969810 
	C338.047180,55.821899 337.160156,55.046741 330.235138,55.402092 
	C330.156982,56.816025 330.076599,58.270374 329.996216,60.667274 
M327.019287,66.462914 
	C327.019287,69.550461 327.019287,72.638008 327.019287,75.762299 
	C330.286621,75.762299 332.745361,75.762299 335.204102,75.762299 
	C335.212830,75.613541 335.221527,75.464783 335.230225,75.316025 
	C332.897614,75.095726 330.564972,74.875435 328.299805,74.661507 
	C328.299805,67.260651 328.299805,60.339260 328.299805,53.231747 
	C331.139587,53.056442 333.675446,52.899902 336.211304,52.743359 
	C336.200836,52.599941 336.190399,52.456520 336.179962,52.313103 
	C333.269226,52.313103 330.358490,52.313103 327.019318,52.313103 
	C327.019318,56.884586 327.019318,61.182213 327.019287,66.462914 
M340.108673,72.283325 
	C339.831787,72.543427 339.549316,72.798370 339.291809,73.076378 
	C339.276276,73.093155 339.459076,73.293655 339.549591,73.408669 
	C339.841217,73.134941 340.132812,72.861206 340.108673,72.283325 
z"/>
<path fill="#475855" opacity="1.000000" stroke="none" 
	d="
M398.893188,54.159275 
	C398.264252,49.355591 400.885559,49.705490 404.233948,50.333504 
	C404.233948,53.702919 404.233948,57.102928 404.233948,60.734612 
	C406.680359,60.734612 408.597137,60.734612 411.032715,60.734612 
	C411.032715,57.337265 411.032715,53.930073 411.032715,50.237297 
	C413.113739,50.130806 414.705292,50.049366 416.613800,49.951702 
	C416.613800,59.282879 416.613800,68.340584 416.613800,77.764542 
	C414.964630,77.854233 413.383331,77.940231 411.343536,78.051163 
	C411.343536,74.142235 411.343536,70.546425 411.343536,66.566483 
	C408.894867,66.566483 406.880066,66.566483 404.374695,66.566483 
	C404.374695,70.296112 404.374695,73.884163 404.374695,77.739426 
	C402.483582,77.864410 401.052917,77.958961 398.893127,78.101700 
	C398.893127,70.129784 398.893127,62.385612 398.893188,54.159275 
M414.363800,74.393196 
	C414.363800,67.213722 414.363800,60.034252 414.363800,52.854782 
	C414.094299,52.864326 413.824799,52.873871 413.555298,52.883415 
	C413.555298,60.050568 413.555298,67.217720 414.363800,74.393196 
z"/>
<path fill="#445552" opacity="1.000000" stroke="none" 
	d="
M513.398132,72.685867 
	C514.469910,74.119431 515.541626,75.553001 516.721741,77.131447 
	C508.888519,80.877060 510.129974,71.857475 505.603973,70.241920 
	C505.373383,72.924500 505.183289,75.135712 504.965149,77.673721 
	C503.454803,77.673721 501.912720,77.673721 500.102966,77.673721 
	C500.102966,68.593880 500.102966,59.566895 500.102966,49.849606 
	C504.110779,50.082726 507.992615,50.308517 511.787659,51.026764 
	C511.449554,51.698250 511.198273,51.877289 510.497131,52.015480 
	C507.473114,51.974636 504.898926,51.974636 502.261017,51.974636 
	C502.261017,59.935162 502.261017,67.031494 502.261017,74.127823 
	C502.447815,74.135376 502.634644,74.142937 502.821442,74.150490 
	C502.962189,72.238152 503.102905,70.325821 503.268921,68.070190 
	C506.017914,68.070190 508.467804,68.070190 510.917664,68.070190 
	C510.869507,67.629646 510.821320,67.189095 510.773132,66.748550 
	C508.339539,66.748550 505.905945,66.748550 503.357300,66.748550 
	C503.357300,62.054466 503.357300,57.686726 503.357300,53.031967 
	C506.182343,53.031967 508.648712,53.031967 511.406158,53.276566 
	C513.063477,53.898594 514.429688,54.276020 515.795959,54.653442 
	C516.195374,59.665661 517.844666,64.824432 513.740540,69.267601 
	C513.302002,69.742340 513.789673,71.072578 513.373779,72.399963 
	C512.906250,72.984055 512.912659,73.174118 512.919067,73.364182 
	C513.078796,73.138084 513.238464,72.911980 513.398132,72.685867 
M505.684631,64.740265 
	C507.287445,64.331329 510.024109,64.263733 510.270172,63.446342 
	C510.888702,61.391850 510.832306,58.841042 510.122375,56.812698 
	C509.803162,55.900715 507.276917,55.761246 505.242065,55.107357 
	C505.242065,58.737957 505.242065,61.365551 505.684631,64.740265 
z"/>
<path fill="#445552" opacity="1.000000" stroke="none" 
	d="
M150.344208,63.606499 
	C149.628876,70.487686 144.630966,70.490135 139.632202,70.729408 
	C139.438385,73.060020 139.263901,75.158112 139.046875,77.767883 
	C137.567108,77.844635 136.022751,77.924744 134.180267,78.020317 
	C134.180267,68.621559 134.180267,59.557476 134.180267,50.511139 
	C148.061798,48.430412 150.605927,50.435364 150.344208,63.606499 
M144.782074,62.966892 
	C145.267914,56.059746 144.998962,55.703526 139.564178,56.283348 
	C139.564178,59.101921 139.564178,61.933437 139.564178,65.528580 
	C141.524323,64.776672 142.935593,64.235313 144.782074,62.966892 
M142.951187,53.008202 
	C143.418213,52.901424 143.885239,52.794643 145.811295,52.354279 
	C141.722107,52.354279 139.114975,52.354279 136.259445,52.354279 
	C136.259445,59.874523 136.259445,67.042023 136.259445,74.209526 
	C136.400650,74.222145 136.541855,74.234756 136.683060,74.247368 
	C136.915970,72.369019 137.148880,70.490669 137.403183,68.439842 
	C140.186249,68.255180 142.693283,68.088844 145.200302,67.922501 
	C145.190552,67.681068 145.180786,67.439644 145.171021,67.198212 
	C142.601852,67.060570 140.032684,66.922920 137.337585,66.778526 
	C137.337585,62.051491 137.337585,57.685192 137.337585,52.988102 
	C139.160995,52.988102 140.633209,52.988102 142.951187,53.008202 
M146.810623,65.746674 
	C146.971878,65.628784 147.133148,65.510895 147.294403,65.393013 
	C147.069901,65.417397 146.845383,65.441788 146.810623,65.746674 
z"/>
<path fill="#445552" opacity="1.000000" stroke="none" 
	d="
M292.049133,77.941071 
	C291.285706,73.012482 290.947357,68.134331 290.722565,63.250954 
	C290.609528,60.795784 290.702820,58.331112 290.702820,55.538639 
	C288.427124,55.304256 286.531281,55.108997 284.402588,54.889755 
	C284.402588,53.325714 284.402588,51.923626 284.402588,50.254318 
	C290.419617,50.254318 296.313507,50.254318 302.468872,50.254318 
	C302.468872,51.817226 302.468872,53.210175 302.468872,54.867085 
	C300.542847,55.044628 298.770355,55.208023 296.168121,55.447903 
	C296.168121,61.757675 296.031158,68.149231 296.229431,74.530365 
	C296.320221,77.452362 295.246277,78.429436 292.049133,77.941071 
M299.238281,52.422375 
	C295.490234,52.422375 291.742188,52.422375 287.994141,52.422375 
	C287.991333,52.520718 287.988495,52.619057 287.985687,52.717400 
	C289.551361,52.920753 291.117065,53.124107 293.070251,53.377792 
	C293.070251,60.592705 293.070251,67.504951 293.070251,74.417191 
	C293.412598,74.415596 293.754944,74.414001 294.097290,74.412407 
	C294.097290,67.363304 294.097290,60.314198 294.097290,53.207989 
	C295.992950,53.068192 297.310364,52.971035 299.238281,52.422375 
z"/>
<path fill="#455552" opacity="1.000000" stroke="none" 
	d="
M515.741272,54.300728 
	C514.429688,54.276020 513.063477,53.898594 511.369080,53.031708 
	C511.040924,52.542244 510.946991,52.056328 510.946991,52.056328 
	C511.198273,51.877289 511.449554,51.698250 512.132874,51.327194 
	C513.605469,52.072788 514.645996,53.010399 515.741272,54.300728 
z"/>
<path fill="#F7F8F8" opacity="1.000000" stroke="none" 
	d="
M162.288559,64.464920 
	C162.069321,61.339298 162.069321,58.595158 162.069321,55.882393 
	C166.087265,54.835567 167.582657,56.414268 167.638977,59.971867 
	C167.695282,63.527866 166.671783,65.801918 162.288559,64.464920 
z"/>
<path fill="#4E5E5B" opacity="1.000000" stroke="none" 
	d="
M169.840698,56.698555 
	C169.501862,56.416630 169.382263,56.166077 169.262665,55.915520 
	C169.503464,55.843918 169.744247,55.772324 169.985046,55.700726 
	C170.010010,56.043793 170.034958,56.386860 169.840698,56.698555 
z"/>
<path fill="#F7F8F8" opacity="1.000000" stroke="none" 
	d="
M193.892242,65.773117 
	C193.678009,67.668350 193.896408,69.433907 193.131714,70.482658 
	C192.315506,71.602097 190.488586,72.733742 189.254852,72.586517 
	C188.048615,72.442566 186.223602,70.788864 186.086227,69.630028 
	C185.662491,66.055527 185.610992,62.362171 186.064331,58.797577 
	C186.230820,57.488499 188.280380,55.399105 189.350861,55.470360 
	C190.853821,55.570400 192.989548,57.079807 193.507050,58.483303 
	C194.262985,60.533485 193.822678,63.024754 193.892242,65.773117 
z"/>
<path fill="#4B5B58" opacity="1.000000" stroke="none" 
	d="
M182.806854,58.898952 
	C182.572464,57.949795 182.444412,57.381393 182.316360,56.812996 
	C182.662842,56.768341 183.009338,56.723690 183.355820,56.679039 
	C183.355820,61.155827 183.355820,65.632614 183.355820,70.109406 
	C183.208267,70.121582 183.060730,70.133766 182.913177,70.145950 
	C182.913177,66.523872 182.913177,62.901791 182.806854,58.898952 
z"/>
<path fill="#4B5B58" opacity="1.000000" stroke="none" 
	d="
M185.297379,53.135738 
	C185.606857,52.944782 185.948318,52.970997 186.289764,52.997215 
	C186.217941,53.235046 186.146133,53.472881 186.074326,53.710720 
	C185.826004,53.591450 185.577667,53.472179 185.297379,53.135738 
z"/>
<path fill="#4B5B58" opacity="1.000000" stroke="none" 
	d="
M192.355316,75.262627 
	C192.370010,75.008713 192.505692,74.870209 192.641357,74.731705 
	C192.586334,74.947144 192.531311,75.162582 192.355316,75.262627 
z"/>
<path fill="#F6F7F7" opacity="1.000000" stroke="none" 
	d="
M457.303497,55.302856 
	C460.843872,55.119823 462.216736,56.789135 462.205048,59.786255 
	C462.192810,62.925903 462.422668,66.106529 461.972534,69.185303 
	C461.784821,70.469215 460.311096,72.071068 459.054993,72.535439 
	C458.018555,72.918625 456.038055,72.226250 455.180725,71.333565 
	C452.794983,68.849586 454.155701,57.921051 457.303497,55.302856 
z"/>
<path fill="#4C5C59" opacity="1.000000" stroke="none" 
	d="
M463.998138,68.354256 
	C463.998688,64.249550 463.998688,60.561852 463.998688,56.874146 
	C464.410187,56.884254 464.821655,56.894360 465.233154,56.904469 
	C465.233154,61.594173 465.233154,66.283875 465.233154,70.973579 
	C464.889404,70.979942 464.545685,70.986313 464.201935,70.992676 
	C464.133820,70.252205 464.065704,69.511726 463.998138,68.354256 
z"/>
<path fill="#A5ADAB" opacity="1.000000" stroke="none" 
	d="
M435.829620,52.925930 
	C433.384827,52.925930 430.940033,52.925930 428.250916,52.925930 
	C428.250916,55.788895 428.250916,58.051884 428.250916,60.654400 
	C430.348511,60.892506 432.376190,61.122677 434.403870,61.352844 
	C434.401703,61.482834 434.399536,61.612827 434.397400,61.742817 
	C432.454468,61.897041 430.511536,62.051266 428.291565,62.227478 
	C428.291565,66.463837 428.291565,70.527214 428.291565,74.742607 
	C430.476837,74.952530 432.392944,75.136597 434.309021,75.320663 
	C434.301422,75.462921 434.293823,75.605179 434.286224,75.747437 
	C432.162354,75.747437 430.038483,75.747437 427.437927,75.747437 
	C427.437927,67.974419 427.437927,60.294834 427.437927,52.037922 
	C429.967468,52.037922 432.413910,52.037922 435.350006,52.270840 
	C435.839661,52.503757 435.829620,52.925930 435.829620,52.925930 
z"/>
<path fill="#EDEFEE" opacity="1.000000" stroke="none" 
	d="
M431.941925,72.444649 
	C430.937531,70.268517 430.320007,68.073784 429.702454,65.879051 
	C430.136658,65.431549 430.570892,64.984055 431.005096,64.536552 
	C432.702423,65.483376 435.258423,66.034035 435.916534,67.460342 
	C437.245972,70.341644 435.418671,72.111679 431.941925,72.444649 
z"/>
<path fill="#4E5E5B" opacity="1.000000" stroke="none" 
	d="
M430.372650,55.844444 
	C435.729828,53.734085 432.815216,57.894096 433.769989,59.431202 
	C429.445496,61.080975 430.733368,57.806873 430.372650,55.844444 
z"/>
<path fill="#4E5E5B" opacity="1.000000" stroke="none" 
	d="
M437.000000,52.999847 
	C437.249573,53.349476 437.499146,53.699100 437.748718,54.048721 
	C437.624573,54.135967 437.500458,54.223217 437.376312,54.310463 
	C437.258453,54.034355 437.140594,53.758244 437.011353,53.241066 
	C437.000000,53.000000 437.000000,52.999847 437.000000,52.999847 
z"/>
<path fill="#4E5E5B" opacity="1.000000" stroke="none" 
	d="
M436.121765,52.951591 
	C435.829620,52.925930 435.839661,52.503757 435.788666,52.298752 
	C436.064117,52.239765 436.390594,52.385784 436.858521,52.765823 
	C437.000000,52.999847 437.000000,53.000000 437.000000,53.000076 
	C436.804626,52.992519 436.609253,52.984890 436.121765,52.951591 
z"/>
<path fill="#717D7B" opacity="1.000000" stroke="none" 
	d="
M249.015717,61.036831 
	C249.015732,58.247871 249.015732,55.926369 249.015732,53.604870 
	C249.438858,53.630718 249.861969,53.656570 250.285095,53.682423 
	C250.285095,59.112343 250.285095,64.542259 250.285095,69.972183 
	C249.861969,69.979546 249.438843,69.986908 249.015717,69.994270 
	C249.015717,67.164276 249.015717,64.334282 249.015717,61.036831 
z"/>
<path fill="#EDEFEE" opacity="1.000000" stroke="none" 
	d="
M218.141052,55.638641 
	C220.753860,58.702812 222.048859,67.796379 219.896774,70.246506 
	C218.418228,71.929802 215.687943,72.513626 212.662003,74.012497 
	C212.662003,66.875168 212.662003,61.189346 212.662003,55.071724 
	C214.537842,55.216610 216.151886,55.341278 218.141052,55.638641 
z"/>
<path fill="#A2AAA9" opacity="1.000000" stroke="none" 
	d="
M209.017319,56.222847 
	C208.683365,53.030441 209.721252,51.725445 212.615784,51.995384 
	C214.404587,52.162209 216.221619,52.026310 218.061356,52.807522 
	C216.827225,52.863365 215.592361,52.906536 214.359177,52.978546 
	C213.073441,53.053627 211.789352,53.156517 210.060532,53.278603 
	C210.060532,60.394836 210.060532,67.280464 210.060532,74.166092 
	C209.712570,74.167038 209.364609,74.167984 209.016647,74.168930 
	C209.016647,68.344017 209.016647,62.519108 209.017319,56.222847 
z"/>
<path fill="#455552" opacity="1.000000" stroke="none" 
	d="
M222.640488,73.107155 
	C222.363541,72.834755 222.249374,72.429688 222.192383,72.016724 
	C222.182556,71.945503 222.415558,71.840759 222.536407,71.751503 
	C222.631805,72.158272 222.727203,72.565048 222.640488,73.107155 
z"/>
<path fill="#455552" opacity="1.000000" stroke="none" 
	d="
M218.300629,74.840492 
	C218.582993,74.501198 218.833862,74.381386 219.084717,74.261581 
	C219.156723,74.503075 219.228729,74.744560 219.300735,74.986053 
	C218.956863,75.010689 218.612976,75.035332 218.300629,74.840492 
z"/>
<path fill="#ECEDED" opacity="1.000000" stroke="none" 
	d="
M537.820740,65.731705 
	C537.186768,72.205528 536.062195,73.108498 529.647461,72.470177 
	C529.647461,66.934959 529.647461,61.366596 529.647461,55.819820 
	C536.750427,54.238598 537.825378,55.504589 537.820740,65.731705 
z"/>
<path fill="#A2AAA9" opacity="1.000000" stroke="none" 
	d="
M526.002686,58.129929 
	C526.002747,56.025757 526.002747,54.401608 526.002747,52.402924 
	C529.330444,52.402924 532.215210,52.402924 535.099976,52.402924 
	C535.121948,52.527550 535.143921,52.652172 535.165833,52.776798 
	C532.708069,52.899475 530.250305,53.022156 527.168884,53.175968 
	C527.168884,60.237797 527.168884,67.263710 527.168884,74.289627 
	C526.780151,74.287956 526.391418,74.286278 526.002686,74.284607 
	C526.002686,69.059723 526.002686,63.834839 526.002686,58.129929 
z"/>
<path fill="#455552" opacity="1.000000" stroke="none" 
	d="
M539.465088,71.603622 
	C539.989380,71.751923 540.314026,72.095886 540.638672,72.439850 
	C540.316895,72.721619 539.995056,73.003403 539.673279,73.285187 
	C539.537354,72.789886 539.401428,72.294579 539.465088,71.603622 
z"/>
<path fill="#455552" opacity="1.000000" stroke="none" 
	d="
M535.741211,75.355278 
	C535.568542,75.043556 535.609619,74.690773 535.650757,74.337982 
	C535.895691,74.425682 536.140686,74.513382 536.385620,74.601082 
	C536.242065,74.838791 536.098511,75.076500 535.741211,75.355278 
z"/>
<path fill="#F9F9F9" opacity="1.000000" stroke="none" 
	d="
M329.996216,60.195999 
	C330.076599,58.270374 330.156982,56.816025 330.235138,55.402092 
	C337.160156,55.046741 338.047180,55.821899 338.113251,61.969810 
	C338.127563,63.301662 338.130035,64.633980 338.112976,65.965767 
	C338.037598,71.853615 336.805145,72.915756 329.996216,72.508102 
	C329.996216,68.587654 329.996216,64.627464 329.996216,60.195999 
z"/>
<path fill="#A2AAA9" opacity="1.000000" stroke="none" 
	d="
M327.019287,65.971375 
	C327.019318,61.182213 327.019318,56.884586 327.019318,52.313103 
	C330.358490,52.313103 333.269226,52.313103 336.179962,52.313103 
	C336.190399,52.456520 336.200836,52.599941 336.211304,52.743359 
	C333.675446,52.899902 331.139587,53.056442 328.299805,53.231747 
	C328.299805,60.339260 328.299805,67.260651 328.299805,74.661507 
	C330.564972,74.875435 332.897614,75.095726 335.230225,75.316025 
	C335.221527,75.464783 335.212830,75.613541 335.204102,75.762299 
	C332.745361,75.762299 330.286621,75.762299 327.019287,75.762299 
	C327.019287,72.638008 327.019287,69.550461 327.019287,65.971375 
z"/>
<path fill="#717D7B" opacity="1.000000" stroke="none" 
	d="
M340.979889,58.677414 
	C341.403931,62.547520 341.827942,66.417625 342.251953,70.287735 
	C341.499390,70.329285 340.746826,70.370834 339.994263,70.412392 
	C339.994263,66.899628 339.994263,63.386860 340.241821,59.360184 
	C340.652863,58.789989 340.816376,58.733704 340.979889,58.677414 
z"/>
<path fill="#53625F" opacity="1.000000" stroke="none" 
	d="
M340.266541,72.435402 
	C340.132812,72.861206 339.841217,73.134941 339.549591,73.408661 
	C339.459076,73.293655 339.276276,73.093155 339.291809,73.076378 
	C339.549316,72.798370 339.831787,72.543427 340.266541,72.435402 
z"/>
<path fill="#53625F" opacity="1.000000" stroke="none" 
	d="
M339.963257,52.481617 
	C339.951172,53.323257 339.894135,54.178753 339.837128,55.034252 
	C339.606354,54.991219 339.375610,54.948185 339.144867,54.905151 
	C339.301361,54.268173 339.457825,53.631195 339.803528,52.715065 
	C339.992737,52.435909 339.918304,52.495476 339.963257,52.481617 
z"/>
<path fill="#53625F" opacity="1.000000" stroke="none" 
	d="
M340.856018,58.557304 
	C340.816376,58.733704 340.652863,58.789989 340.234894,58.896770 
	C340.231018,58.777245 340.481598,58.607220 340.856018,58.557304 
z"/>
<path fill="#717D7B" opacity="1.000000" stroke="none" 
	d="
M413.959534,74.389038 
	C413.555298,67.217720 413.555298,60.050568 413.555298,52.883415 
	C413.824799,52.873871 414.094299,52.864326 414.363800,52.854782 
	C414.363800,60.034252 414.363800,67.213722 413.959534,74.389038 
z"/>
<path fill="#ECEDED" opacity="1.000000" stroke="none" 
	d="
M505.463348,64.366707 
	C505.242065,61.365551 505.242065,58.737957 505.242065,55.107357 
	C507.276917,55.761246 509.803162,55.900715 510.122375,56.812698 
	C510.832306,58.841042 510.888702,61.391850 510.270172,63.446342 
	C510.024109,64.263733 507.287445,64.331329 505.463348,64.366707 
z"/>
<path fill="#A2AAA9" opacity="1.000000" stroke="none" 
	d="
M510.497131,52.015480 
	C510.946991,52.056328 511.040924,52.542244 511.078003,52.787106 
	C508.648712,53.031967 506.182343,53.031967 503.357300,53.031967 
	C503.357300,57.686726 503.357300,62.054466 503.357300,66.748550 
	C505.905945,66.748550 508.339539,66.748550 510.773132,66.748550 
	C510.821320,67.189095 510.869507,67.629646 510.917664,68.070190 
	C508.467804,68.070190 506.017914,68.070190 503.268921,68.070190 
	C503.102905,70.325821 502.962189,72.238152 502.821442,74.150490 
	C502.634644,74.142937 502.447815,74.135376 502.261017,74.127823 
	C502.261017,67.031494 502.261017,59.935162 502.261017,51.974636 
	C504.898926,51.974636 507.473114,51.974636 510.497131,52.015480 
z"/>
<path fill="#455552" opacity="1.000000" stroke="none" 
	d="
M513.351624,72.675812 
	C513.238464,72.911980 513.078796,73.138084 512.919067,73.364182 
	C512.912659,73.174118 512.906250,72.984055 513.089844,72.683990 
	C513.279785,72.573990 513.305115,72.665749 513.351624,72.675812 
z"/>
<path fill="#ECEDED" opacity="1.000000" stroke="none" 
	d="
M144.564468,63.330421 
	C142.935593,64.235313 141.524323,64.776672 139.564178,65.528580 
	C139.564178,61.933437 139.564178,59.101921 139.564178,56.283348 
	C144.998962,55.703526 145.267914,56.059746 144.564468,63.330421 
z"/>
<path fill="#A2AAA9" opacity="1.000000" stroke="none" 
	d="
M142.528305,52.998154 
	C140.633209,52.988102 139.160995,52.988102 137.337585,52.988102 
	C137.337585,57.685192 137.337585,62.051491 137.337585,66.778526 
	C140.032684,66.922920 142.601852,67.060570 145.171021,67.198212 
	C145.180786,67.439644 145.190552,67.681068 145.200302,67.922501 
	C142.693283,68.088844 140.186249,68.255180 137.403183,68.439842 
	C137.148880,70.490669 136.915970,72.369019 136.683060,74.247368 
	C136.541855,74.234756 136.400650,74.222145 136.259445,74.209526 
	C136.259445,67.042023 136.259445,59.874523 136.259445,52.354279 
	C139.114975,52.354279 141.722107,52.354279 145.811295,52.354279 
	C143.885239,52.794643 143.418213,52.901424 142.528305,52.998154 
z"/>
<path fill="#475855" opacity="1.000000" stroke="none" 
	d="
M146.715759,65.606422 
	C146.845383,65.441788 147.069901,65.417397 147.294403,65.393013 
	C147.133148,65.510895 146.971878,65.628784 146.715759,65.606422 
z"/>
<path fill="#A5ADAB" opacity="1.000000" stroke="none" 
	d="
M298.933014,52.648129 
	C297.310364,52.971035 295.992950,53.068192 294.097290,53.207989 
	C294.097290,60.314198 294.097290,67.363304 294.097290,74.412407 
	C293.754944,74.414001 293.412598,74.415596 293.070251,74.417191 
	C293.070251,67.504951 293.070251,60.592705 293.070251,53.377792 
	C291.117065,53.124107 289.551361,52.920753 287.985687,52.717400 
	C287.988495,52.619057 287.991333,52.520718 287.994141,52.422375 
	C291.742188,52.422375 295.490234,52.422375 298.933014,52.648129 
z"/>
</svg>